# xmcd CD database file
#
# Track frame offsets:
#	150
#	13356
#	24928
#	38660
#	52773
#	66749
#	82045
#	97432
#	111515
#	125894
#	140292
#	154817
#	168893
#	183312
#	197481
#	214544
#	228542
#	236985
#	251375
#	264589
#	274781
#	294154
#	306679
#	313911
#	317890
#	331594
#
# Disc length: 4564 seconds
#
# Revision: 0
# Processed by: cddbd v1.5.2PL0 Copyright (c) Steve Scherf et al.
# Submitted via: CDex 1.50beta10
#
DISCID=8811d21a
DTITLE=Leadbelly - Good Mornin' Blues
DYEAR=1900
DGENRE=Blues
TTITLE0=Good Mornin' Blues
TTITLE1=Rock Island Line
TTITLE2=Pick a Bale of Cotton
TTITLE3=Mister Tom Hughes' Town
TTITLE4=Black Betty
TTITLE5=The Bourgeois Blues
TTITLE6=Poor Howard - Green Corn
TTITLE7=Whoa Back Buck
TTITLE8=The Boll Weevil
TTITLE9=The Gallis Pole
TTITLE10=Easy Rider
TTITLE11=Midnight Special
TTITLE12=New York City
TTITLE13=You Can't Lose-a me
TTITLE14=Leaving Blues
TTITLE15=Alabama Bound
TTITLE16=On a Monday
TTITLE17=I'm On My Last Go Round
TTITLE18=Can't You Line 'Em?
TTITLE19=How Long Blues
TTITLE20=John Hardy
TTITLE21=Eagle Rock Rag
TTITLE22=Out On The Western Plains
TTITLE23=Bring Me Li'l Water Silvy
TTITLE24=Take This Hammer
TTITLE25=Goodnight, Irene
EXTD=
EXTT0=
EXTT1=
EXTT2=
EXTT3=
EXTT4=
EXTT5=
EXTT6=
EXTT7=
EXTT8=
EXTT9=
EXTT10=
EXTT11=
EXTT12=
EXTT13=
EXTT14=
EXTT15=
EXTT16=
EXTT17=
EXTT18=
EXTT19=
EXTT20=
EXTT21=
EXTT22=
EXTT23=
EXTT24=
EXTT25=
PLAYORDER=
